<svg width="64" height="64" viewBox="0 0 64 64" fill="none" xmlns="http://www.w3.org/2000/svg">
  <defs>
    <linearGradient id="gradient" x1="0%" y1="0%" x2="100%" y2="100%">
      <stop offset="0%" style="stop-color:#3b82f6"/>
      <stop offset="100%" style="stop-color:#1e40af"/>
    </linearGradient>
  </defs>
  
  <!-- Fundo circular com gradiente -->
  <circle cx="32" cy="32" r="28" fill="url(#gradient)"/>
  
  <!-- Círculo central (roteador) -->
  <circle cx="32" cy="32" r="4" fill="white"/>
  
  <!-- Arcos de sinal WiFi -->
  <g stroke="white" stroke-width="3" fill="none" stroke-linecap="round">
    <!-- Arco interno -->
    <path d="M24 24 C24 24, 28 20, 32 20 C36 20, 40 24, 40 24" opacity="0.9"/>
    <!-- Arco médio -->
    <path d="M20 20 C20 20, 26 14, 32 14 C38 14, 44 20, 44 20" opacity="0.7"/>
    <!-- Arco externo -->
    <path d="M16 16 C16 16, 24 8, 32 8 C40 8, 48 16, 48 16" opacity="0.5"/>
  </g>
  
  <!-- Pontos decorativos -->
  <circle cx="18" cy="46" r="1.5" fill="white" opacity="0.6"/>
  <circle cx="46" cy="46" r="1.5" fill="white" opacity="0.6"/>
  <circle cx="32" cy="52" r="1" fill="white" opacity="0.4"/>
</svg>