<svg width="64" height="64" viewBox="0 0 64 64" fill="none" xmlns="http://www.w3.org/2000/svg">
  <!-- Fundo azul -->
  <rect width="64" height="64" rx="12" fill="#3b82f6"/>
  
  <!-- Símbolo WiFi simplificado -->
  <g fill="white">
    <!-- Arco externo -->
    <path d="M32 16C44.15 16 54 25.85 54 38C54 38.55 53.55 39 53 39C52.45 39 52 38.55 52 38C52 26.95 43.05 18 32 18C20.95 18 12 26.95 12 38C12 38.55 11.55 39 11 39C10.45 39 10 38.55 10 38C10 25.85 19.85 16 32 16Z"/>
    
    <!-- Arco médio -->
    <path d="M32 24C39.73 24 46 30.27 46 38C46 38.55 45.55 39 45 39C44.45 39 44 38.55 44 38C44 31.37 38.63 26 32 26C25.37 26 20 31.37 20 38C20 38.55 19.55 39 19 39C18.45 39 18 38.55 18 38C18 30.27 24.27 24 32 24Z"/>
    
    <!-- Arco interno -->
    <path d="M32 32C35.31 32 38 34.69 38 38C38 38.55 37.55 39 37 39C36.45 39 36 38.55 36 38C36 35.79 34.21 34 32 34C29.79 34 28 35.79 28 38C28 38.55 27.55 39 27 39C26.45 39 26 38.55 26 38C26 34.69 28.69 32 32 32Z"/>
    
    <!-- Ponto central -->
    <circle cx="32" cy="44" r="4"/>
  </g>
</svg>